<?xml version="1.0" encoding="UTF-8"?>
<svg version="1.1" xmlns="http://www.w3.org/2000/svg" width="500" height="500">
<path d="M0 0 C165 0 330 0 500 0 C500 165 500 330 500 500 C335 500 170 500 0 500 C0 335 0 170 0 0 Z " fill="#000000" transform="translate(0,0)"/>
<path d="M0 0 C17.28375 -0.061875 34.5675 -0.12375 52.375 -0.1875 C57.79728027 -0.21481201 63.21956055 -0.24212402 68.80615234 -0.27026367 C75.5168457 -0.28381348 75.5168457 -0.28381348 78.6756897 -0.28633118 C80.84408424 -0.29088553 83.01247202 -0.30132541 85.18081665 -0.31672668 C118.4495159 -0.540855 146.09368597 6.23867793 170.625 30.125 C181.69356254 41.30680851 188.9740714 54.15206895 194 69 C194.22445801 69.65097656 194.44891602 70.30195313 194.68017578 70.97265625 C200.80149019 89.57619045 200.13781723 111.51006462 194 130 C193.79101074 130.6379248 193.58202148 131.27584961 193.36669922 131.93310547 C184.94852183 156.9606306 166.75244233 176.93515448 143.46508789 188.9934082 C126.74344721 197.2231339 109.6496051 199.3613296 91.125 199.125 C89.74349622 199.11493026 88.36198516 199.1058116 86.98046875 199.09765625 C83.65345268 199.0743904 80.32682715 199.04170564 77 199 C76.50608274 184.2400011 76.13753593 169.48111504 75.91194439 154.71448994 C75.80433209 147.85507208 75.6575736 141.00087834 75.41577148 134.14477539 C73.68620101 84.16465635 73.68620101 84.16465635 83.12373447 72.95493984 C87.42246111 68.421767 92.39046713 64.73891074 98 62 C98.33 62 98.66 62 99 62 C99 99.95 99 137.9 99 177 C125.9133632 172.7505216 145.04937757 165.5635348 162 144 C174.67873224 126.10590273 177.86002411 104.02825706 174.41796875 82.6328125 C169.81941326 63.10470015 157.65124746 46.09284543 141 35 C127.00868252 26.80051551 112.58949674 22.91879627 96.47265625 22.79467773 C95.66194168 22.78477814 94.85122711 22.77487854 94.01594543 22.76467896 C91.36482557 22.73336188 88.71368785 22.70842577 86.0625 22.68359375 C84.21304894 22.66299842 82.36360231 22.64200131 80.51416016 22.62062073 C75.66782238 22.56566627 70.82144402 22.51614058 65.97503662 22.46777344 C60.14869286 22.40848561 54.32242259 22.34240544 48.49613953 22.27747345 C39.66413825 22.1797994 30.83208785 22.09071419 22 22 C22 35.2 22 48.4 22 62 C39.16 62 56.32 62 74 62 C67.24974255 69.87530036 67.24974255 69.87530036 64.74162292 72.38536072 C64.17107178 72.95873169 63.60052063 73.53210266 63.01268005 74.12284851 C62.40932327 74.72418106 61.80596649 75.32551361 61.18432617 75.94506836 C60.53156708 76.59957977 59.87880798 77.25409119 59.20626831 77.92843628 C57.07099213 80.06807635 54.93212409 82.20408249 52.79296875 84.33984375 C51.30163707 85.83184955 49.81045382 87.32400373 48.31941223 88.81629944 C45.20683235 91.93034846 42.09246346 95.04259405 38.97680664 98.15356445 C34.97387462 102.15076982 30.97548848 106.15248774 26.97840405 110.15553951 C23.90657029 113.23097473 20.8323738 116.30403922 17.75744057 119.3763752 C16.28103443 120.85211245 14.80537573 122.32859786 13.33046532 123.80583 C11.27894559 125.85987263 9.22427688 127.91071088 7.16870117 129.96069336 C6.55522324 130.57619553 5.9417453 131.19169769 5.30967712 131.82585144 C1.1142683 136 1.1142683 136 0 136 C0 91.12 0 46.24 0 0 Z " fill="#FDFDFD" transform="translate(151,158)"/>
<path d="M0 0 C0 32.34 0 64.68 0 98 C-7.26 98 -14.52 98 -22 98 C-22.47879091 88.32351286 -22.86199233 78.65514866 -23.08805561 68.96939564 C-23.19668955 64.46910747 -23.34325384 59.97747706 -23.58422852 55.48217773 C-25.2886186 22.86098033 -25.2886186 22.86098033 -15.87626553 12.25908566 C-4.06286107 0 -4.06286107 0 0 0 Z " fill="#FDFDFD" transform="translate(210,259)"/>
<path d="M0 0 C0 20.46 0 40.92 0 62 C-7.26 62 -14.52 62 -22 62 C-25.45919915 23.43633544 -25.45919915 23.43633544 -17.359375 13.6015625 C-5.13344937 0 -5.13344937 0 0 0 Z " fill="#FBFBFB" transform="translate(173,295)"/>
<path d="M0 0 C1.875 1.1875 1.875 1.1875 3 3 C2.75546876 6.34192692 2.39456443 7.60543557 0 10 C-3.625 9.625 -3.625 9.625 -7 9 C-8.33157895 3.55263158 -8.33157895 3.55263158 -6.875 1.125 C-4.36737712 -0.37957373 -2.87879197 -0.4318188 0 0 Z " fill="#D8D8D8" transform="translate(264,368)"/>
<path d="M0 0 C0.99 0 1.98 0 3 0 C3.66 0.99 4.32 1.98 5 3 C5.33 2.01 5.66 1.02 6 0 C7.32 0.33 8.64 0.66 10 1 C10 1.99 10 2.98 10 4 C10.66 4 11.32 4 12 4 C12.33 2.68 12.66 1.36 13 0 C13.66 0 14.32 0 15 0 C14.34 3.3 13.68 6.6 13 10 C12.01 10 11.02 10 10 10 C9.34 8.68 8.68 7.36 8 6 C7.34 7.32 6.68 8.64 6 10 C5.01 10 4.02 10 3 10 C2.01 6.7 1.02 3.4 0 0 Z " fill="#EAEAEA" transform="translate(195,368)"/>
<path d="M0 0 C5.625 -0.25 5.625 -0.25 9 2 C9.3125 5 9.3125 5 9 8 C7 10 7 10 3.375 10.125 C2.26125 10.08375 1.1475 10.0425 0 10 C0 6.7 0 3.4 0 0 Z " fill="#DDDDDD" transform="translate(285,368)"/>
<path d="M0 0 C5.3820598 -0.35880399 5.3820598 -0.35880399 7.9375 1.125 C9 3 9 3 8.8125 6.125 C8.544375 7.07375 8.27625 8.0225 8 9 C5.29120665 10.35439668 2.99066732 10.06501451 0 10 C0 6.7 0 3.4 0 0 Z " fill="#E7E7E7" transform="translate(148,368)"/>
<path d="M0 0 C3.375 -0.125 3.375 -0.125 7 0 C7.66 0.66 8.32 1.32 9 2 C8.70740515 4.00636471 8.37366113 6.00714063 8 8 C8.33 8.66 8.66 9.32 9 10 C7.68 9.67 6.36 9.34 5 9 C5 8.34 5 7.68 5 7 C4.34 7 3.68 7 3 7 C3 7.99 3 8.98 3 10 C2.01 10 1.02 10 0 10 C0 6.7 0 3.4 0 0 Z " fill="#C6C6C6" transform="translate(325,368)"/>
<path d="M0 0 C4 1 4 1 6 4 C6.33 2.68 6.66 1.36 7 0 C7.66 0 8.32 0 9 0 C9 3.3 9 6.6 9 10 C5 8 5 8 4 6 C3.67 7.32 3.34 8.64 3 10 C2.01 10 1.02 10 0 10 C0 6.7 0 3.4 0 0 Z " fill="#D5D5D5" transform="translate(182,368)"/>
<path d="M0 0 C0.99 0 1.98 0 3 0 C3 2.31 3 4.62 3 7 C3.99 7 4.98 7 6 7 C6 4.69 6 2.38 6 0 C6.99 0 7.98 0 9 0 C9.1953125 6.0546875 9.1953125 6.0546875 9 8 C7 10 7 10 4.5 10.25 C2 10 2 10 0 8 C-0.26991906 5.31160615 -0.08737357 2.70858064 0 0 Z " fill="#CBCBCB" transform="translate(271,368)"/>
<path d="M0 0 C0.66 1.32 1.32 2.64 2 4 C-0.31 3.67 -2.62 3.34 -5 3 C-5 4.32 -5 5.64 -5 7 C-1.535 6.505 -1.535 6.505 2 6 C1.34 7.32 0.68 8.64 0 10 C-2.31 9.67 -4.62 9.34 -7 9 C-8.33157895 3.55263158 -8.33157895 3.55263158 -6.875 1.125 C-4.46277487 -0.32233508 -2.7648665 -0.22417836 0 0 Z " fill="#DDDDDD" transform="translate(236,368)"/>
<path d="M0 0 C0.99 0 1.98 0 3 0 C6 6.625 6 6.625 6 10 C5.34 10 4.68 10 4 10 C4 9.34 4 8.68 4 8 C2.35 8 0.7 8 -1 8 C-1 8.66 -1 9.32 -1 10 C-1.99 9.67 -2.98 9.34 -4 9 C-2.68 6.03 -1.36 3.06 0 0 Z " fill="#E9E9E9" transform="translate(315,368)"/>
<path d="M0 0 C1.890625 0.21484375 1.890625 0.21484375 4 1 C5.046875 3.06640625 5.046875 3.06640625 5.75 5.5625 C5.99234375 6.38878906 6.2346875 7.21507812 6.484375 8.06640625 C6.65453125 8.70449219 6.8246875 9.34257812 7 10 C6.01 10 5.02 10 4 10 C4 9.34 4 8.68 4 8 C2.35 8 0.7 8 -1 8 C-1 8.66 -1 9.32 -1 10 C-1.66 10 -2.32 10 -3 10 C-2.39009109 6.44219804 -1.4216319 3.3171411 0 0 Z " fill="#E9E9E9" transform="translate(164,368)"/>
<path d="M0 0 C0.66 0 1.32 0 2 0 C2 1.32 2 2.64 2 4 C3.32 4 4.64 4 6 4 C6 2.68 6 1.36 6 0 C6.66 0 7.32 0 8 0 C8 3.3 8 6.6 8 10 C7.34 10 6.68 10 6 10 C6 8.68 6 7.36 6 6 C4.68 6 3.36 6 2 6 C2 7.32 2 8.64 2 10 C1.34 10 0.68 10 0 10 C0 6.7 0 3.4 0 0 Z " fill="#FDFDFD" transform="translate(299,368)"/>
<path d="M0 0 C0.66 0 1.32 0 2 0 C2 1.32 2 2.64 2 4 C3.32 4 4.64 4 6 4 C6 2.68 6 1.36 6 0 C6.66 0 7.32 0 8 0 C8 3.3 8 6.6 8 10 C7.34 10 6.68 10 6 10 C6 8.68 6 7.36 6 6 C4.68 6 3.36 6 2 6 C2 7.32 2 8.64 2 10 C1.34 10 0.68 10 0 10 C0 6.7 0 3.4 0 0 Z " fill="#FCFCFC" transform="translate(243,368)"/>
<path d="M0 0 C0.99 0 1.98 0 3 0 C3.66 0.66 4.32 1.32 5 2 C5.33 1.34 5.66 0.68 6 0 C6.99 0 7.98 0 9 0 C8.01 3.3 7.02 6.6 6 10 C5.01 10 4.02 10 3 10 C1.87119943 6.68885166 0.78697325 3.41021743 0 0 Z " fill="#DDDDDD" transform="translate(338,368)"/>
<path d="M0 0 C1.98 0 3.96 0 6 0 C5.67 0.66 5.34 1.32 5 2 C4.01 2 3.02 2 2 2 C2 3.98 2 5.96 2 8 C2.99 8 3.98 8 5 8 C5 8.66 5 9.32 5 10 C3.35 10 1.7 10 0 10 C0 6.7 0 3.4 0 0 Z " fill="#FCFCFC" transform="translate(285,368)"/>
<path d="M0 0 C0.99 0 1.98 0 3 0 C3 2.64 3 5.28 3 8 C3.66 8 4.32 8 5 8 C5 8.66 5 9.32 5 10 C1.125 9.125 1.125 9.125 0 8 C-0.14115161 5.32941149 -0.04247107 2.67567762 0 0 Z " fill="#D4D4D4" transform="translate(271,368)"/>
<path d="M0 0 C0.66 0 1.32 0 2 0 C1.34 3.3 0.68 6.6 0 10 C-0.99 10 -1.98 10 -3 10 C-3.33 8.35 -3.66 6.7 -4 5 C-3.34 5 -2.68 5 -2 5 C-1.34 3.35 -0.68 1.7 0 0 Z " fill="#ECECEC" transform="translate(208,368)"/>
<path d="M0 0 C0.66 0 1.32 0 2 0 C2 3.3 2 6.6 2 10 C-2 8 -2 8 -2.75 5.875 C-2.8325 5.25625 -2.915 4.6375 -3 4 C-2.34 4 -1.68 4 -1 4 C-0.67 2.68 -0.34 1.36 0 0 Z " fill="#F7F7F7" transform="translate(189,368)"/>
<path d="M0 0 C1.32 0.33 2.64 0.66 4 1 C4 2.32 4 3.64 4 5 C2.68 5.33 1.36 5.66 0 6 C0 4.02 0 2.04 0 0 Z " fill="#2E2E2E" transform="translate(287,370)"/>
<path d="M0 0 C1.98 0.495 1.98 0.495 4 1 C4 1.99 4 2.98 4 4 C4.66 4 5.32 4 6 4 C5.67 4.66 5.34 5.32 5 6 C2.03 5.505 2.03 5.505 -1 5 C-0.67 3.35 -0.34 1.7 0 0 Z " fill="#D3D3D3" transform="translate(201,368)"/>
<path d="M0 0 C1.98 0.495 1.98 0.495 4 1 C3.67 2.65 3.34 4.3 3 6 C2.01 6.33 1.02 6.66 0 7 C-1.125 2.25 -1.125 2.25 0 0 Z " fill="#C0C0C0" transform="translate(164,368)"/>
<path d="M0 0 C1.32 0.33 2.64 0.66 4 1 C3.67 2.65 3.34 4.3 3 6 C2.01 6 1.02 6 0 6 C0 4.02 0 2.04 0 0 Z " fill="#1A1A1A" transform="translate(150,370)"/>
<path d="M0 0 C0.66 0.99 1.32 1.98 2 3 C0.02 3.99 0.02 3.99 -2 5 C-2 5.66 -2 6.32 -2 7 C-2.99 6.67 -3.98 6.34 -5 6 C-4.1875 3.5625 -4.1875 3.5625 -3 1 C-2.01 0.67 -1.02 0.34 0 0 Z " fill="#C0C0C0" transform="translate(316,371)"/>
<path d="M0 0 C1.65 0 3.3 0 5 0 C5 1.32 5 2.64 5 4 C3.35 4 1.7 4 0 4 C0 2.68 0 1.36 0 0 Z " fill="#080808" transform="translate(259,371)"/>
<path d="M0 0 C0.99 0 1.98 0 3 0 C3.33 1.32 3.66 2.64 4 4 C2.68 4.33 1.36 4.66 0 5 C-0.5625 3.0625 -0.5625 3.0625 -1 1 C-0.67 0.67 -0.34 0.34 0 0 Z " fill="#E2E2E2" transform="translate(315,368)"/>
<path d="M0 0 C2 3 2 3 2 5 C2.99 5 3.98 5 5 5 C5 5.66 5 6.32 5 7 C3.35 7 1.7 7 0 7 C0 4.69 0 2.38 0 0 Z " fill="#FCFCFC" transform="translate(148,371)"/>
<path d="M0 0 C1.65 0 3.3 0 5 0 C5.66 1.32 6.32 2.64 7 4 C4.03 3.505 4.03 3.505 1 3 C0.67 2.01 0.34 1.02 0 0 Z " fill="#D4D4D4" transform="translate(231,368)"/>
</svg>
